<?xml version="1.0" encoding="UTF-8"?>
<svg xmlns="http://www.w3.org/2000/svg" xmlns:xlink="http://www.w3.org/1999/xlink" width="100pt" height="100pt" viewBox="0 0 100 100" version="1.1">
<g id="surface1">
<path style="fill:none;stroke-width:0.001;stroke-linecap:butt;stroke-linejoin:miter;stroke:rgb(0%,0%,0%);stroke-opacity:1;stroke-miterlimit:10;" d="M 0.547188 0.741016 L 0.628477 0.801953 L 0.839883 1.656641 L -0.523594 2.819922 L -0.160195 2.017969 Z M 0.547188 0.741016 " transform="matrix(100,0,0,100,0,0)"/>
<path style="fill:none;stroke-width:0.001;stroke-linecap:butt;stroke-linejoin:miter;stroke:rgb(0%,0%,0%);stroke-opacity:1;stroke-miterlimit:10;" d="M 0.681875 -0.28582 L 0.817461 -1.155742 L 2.042656 0.80207 L 1.187266 0.593516 L 0.808984 0.423984 Z M 0.681875 -0.28582 " transform="matrix(100,0,0,100,0,0)"/>
<path style="fill:none;stroke-width:0.001;stroke-linecap:butt;stroke-linejoin:miter;stroke:rgb(0%,0%,0%);stroke-opacity:1;stroke-miterlimit:10;" d="M 0.670977 0.800352 L 0.628477 0.801953 L 0.547188 0.741016 L 0.47707 0.581719 L 0.808984 0.423984 L 1.187266 0.593516 Z M 0.670977 0.800352 " transform="matrix(100,0,0,100,0,0)"/>
<path style="fill:none;stroke-width:0.001;stroke-linecap:butt;stroke-linejoin:miter;stroke:rgb(0%,0%,0%);stroke-opacity:1;stroke-miterlimit:10;" d="M -0.59418 0.560469 L 0.281211 0.466328 L 0.358047 0.532109 L -0.160195 2.017969 L -0.523594 2.819922 Z M -0.59418 0.560469 " transform="matrix(100,0,0,100,0,0)"/>
<path style="fill:none;stroke-width:0.001;stroke-linecap:butt;stroke-linejoin:miter;stroke:rgb(0%,0%,0%);stroke-opacity:1;stroke-miterlimit:10;" d="M -0.0185156 -0.374023 L 0.817461 -1.155742 L 0.681875 -0.28582 L 0.284609 0.452578 Z M -0.0185156 -0.374023 " transform="matrix(100,0,0,100,0,0)"/>
<path style="fill:none;stroke-width:0.001;stroke-linecap:butt;stroke-linejoin:miter;stroke:rgb(0%,0%,0%);stroke-opacity:1;stroke-miterlimit:10;" d="M 0.47707 0.581719 L 0.808984 0.423984 L 0.681875 -0.28582 L 0.284609 0.452578 L 0.281211 0.466328 L 0.358047 0.532109 Z M 0.47707 0.581719 " transform="matrix(100,0,0,100,0,0)"/>
<path style="fill:none;stroke-width:0.001;stroke-linecap:butt;stroke-linejoin:miter;stroke:rgb(0%,0%,0%);stroke-opacity:1;stroke-miterlimit:10;" d="M -0.0185156 -0.374023 L 0.284609 0.452578 L 0.281211 0.466328 L -0.59418 0.560469 Z M -0.0185156 -0.374023 " transform="matrix(100,0,0,100,0,0)"/>
<path style="fill:none;stroke-width:0.001;stroke-linecap:butt;stroke-linejoin:miter;stroke:rgb(0%,0%,0%);stroke-opacity:1;stroke-miterlimit:10;" d="M 0.670977 0.800352 L 1.187266 0.593516 L 2.042656 0.80207 L 1.453477 1.203906 Z M 0.670977 0.800352 " transform="matrix(100,0,0,100,0,0)"/>
<path style="fill:none;stroke-width:0.001;stroke-linecap:butt;stroke-linejoin:miter;stroke:rgb(0%,0%,0%);stroke-opacity:1;stroke-miterlimit:10;" d="M 0.547188 0.741016 L 0.47707 0.581719 L 0.358047 0.532109 L -0.160195 2.017969 Z M 0.547188 0.741016 " transform="matrix(100,0,0,100,0,0)"/>
<path style="fill:none;stroke-width:0.001;stroke-linecap:butt;stroke-linejoin:miter;stroke:rgb(0%,0%,0%);stroke-opacity:1;stroke-miterlimit:10;" d="M 0.628477 0.801953 L 0.670977 0.800352 L 1.453477 1.203906 L 0.839883 1.656641 Z M 0.628477 0.801953 " transform="matrix(100,0,0,100,0,0)"/>
<path style=" stroke:none;fill-rule:nonzero;fill:rgb(70%,20%,20%);fill-opacity:1;" d="M 0 0 L 55.28125 97.203125 C 55.28125 97.734375 54.484375 97.734375 54.484375 97.203125 C 54.484375 96.667969 55.28125 96.667969 55.28125 97.203125 "/>
<path style=" stroke:none;fill-rule:nonzero;fill:rgb(70%,20%,20%);fill-opacity:1;" d="M 0 0 L 97.601562 22.550781 C 97.601562 23.085938 96.800781 23.085938 96.800781 22.550781 C 96.800781 22.019531 97.601562 22.019531 97.601562 22.550781 "/>
<path style=" stroke:none;fill-rule:nonzero;fill:rgb(70%,20%,20%);fill-opacity:1;" d="M 0 0 L 77.335938 67.773438 C 77.335938 68.308594 76.535156 68.308594 76.535156 67.773438 C 76.535156 67.242188 77.335938 67.242188 77.335938 67.773438 "/>
<path style=" stroke:none;fill-rule:nonzero;fill:rgb(70%,20%,20%);fill-opacity:1;" d="M 0 0 L 16.273438 79.523438 C 16.273438 80.058594 15.472656 80.058594 15.472656 79.523438 C 15.472656 78.992188 16.273438 78.992188 16.273438 79.523438 "/>
<path style=" stroke:none;fill-rule:nonzero;fill:rgb(70%,20%,20%);fill-opacity:1;" d="M 0 0 L 25.382812 11.292969 C 25.382812 11.828125 24.582031 11.828125 24.582031 11.292969 C 24.582031 10.761719 25.382812 10.761719 25.382812 11.292969 "/>
<path style=" stroke:none;fill-rule:nonzero;fill:rgb(70%,20%,20%);fill-opacity:1;" d="M 0 0 L 59.121094 29.445312 C 59.121094 29.976562 58.320312 29.976562 58.320312 29.445312 C 58.320312 28.910156 59.121094 28.910156 59.121094 29.445312 "/>
<path style=" stroke:none;fill-rule:nonzero;fill:rgb(70%,20%,20%);fill-opacity:1;" d="M 0 0 L 9.558594 17.09375 C 9.558594 17.628906 8.757812 17.628906 8.757812 17.09375 C 8.757812 16.5625 9.558594 16.5625 9.558594 17.09375 "/>
<path style=" stroke:none;fill-rule:nonzero;fill:rgb(70%,20%,20%);fill-opacity:1;" d="M 0 0 L 83.078125 82.113281 C 83.078125 82.644531 82.28125 82.644531 82.28125 82.113281 C 82.28125 81.578125 83.078125 81.578125 83.078125 82.113281 "/>
<path style=" stroke:none;fill-rule:nonzero;fill:rgb(70%,20%,20%);fill-opacity:1;" d="M 0 0 L 35.449219 86.214844 C 35.449219 86.746094 34.648438 86.746094 34.648438 86.214844 C 34.648438 85.679688 35.449219 85.679688 35.449219 86.214844 "/>
<path style=" stroke:none;fill-rule:nonzero;fill:rgb(70%,20%,20%);fill-opacity:1;" d="M 0 0 L 78.222656 91.527344 C 78.222656 92.0625 77.425781 92.0625 77.425781 91.527344 C 77.425781 90.996094 78.222656 90.996094 78.222656 91.527344 "/>
<path style=" stroke:none;fill-rule:nonzero;fill:rgb(20%,20%,70%);fill-opacity:1;" d="M 28.460938 45.257812 L 30.460938 45.257812 C 30.460938 47.925781 26.460938 47.925781 26.460938 45.257812 C 26.460938 42.59375 30.460938 42.59375 30.460938 45.257812 "/>
<path style=" stroke:none;fill-rule:nonzero;fill:rgb(20%,20%,70%);fill-opacity:1;" d="M 28.121094 46.632812 L 30.121094 46.632812 C 30.121094 49.300781 26.121094 49.300781 26.121094 46.632812 C 26.121094 43.964844 30.121094 43.964844 30.121094 46.632812 "/>
<path style=" stroke:none;fill-rule:nonzero;fill:rgb(20%,20%,70%);fill-opacity:1;" d="M 62.847656 80.195312 L 64.847656 80.195312 C 64.847656 82.863281 60.847656 82.863281 60.847656 80.195312 C 60.847656 77.527344 64.847656 77.527344 64.847656 80.195312 "/>
<path style=" stroke:none;fill-rule:nonzero;fill:rgb(20%,20%,70%);fill-opacity:1;" d="M 80.898438 42.398438 L 82.898438 42.398438 C 82.898438 45.066406 78.898438 45.066406 78.898438 42.398438 C 78.898438 39.730469 82.898438 39.730469 82.898438 42.398438 "/>
<path style=" stroke:none;fill-rule:nonzero;fill:rgb(20%,20%,70%);fill-opacity:1;" d="M 35.804688 53.210938 L 37.804688 53.210938 C 37.804688 55.875 33.804688 55.875 33.804688 53.210938 C 33.804688 50.542969 37.804688 50.542969 37.804688 53.210938 "/>
<path style=" stroke:none;fill-rule:nonzero;fill:rgb(20%,20%,70%);fill-opacity:1;" d="M 47.707031 58.171875 L 49.707031 58.171875 C 49.707031 60.839844 45.707031 60.839844 45.707031 58.171875 C 45.707031 55.503906 49.707031 55.503906 49.707031 58.171875 "/>
<path style=" stroke:none;fill-rule:nonzero;fill:rgb(20%,20%,70%);fill-opacity:1;" d="M 54.71875 74.101562 L 56.71875 74.101562 C 56.71875 76.769531 52.71875 76.769531 52.71875 74.101562 C 52.71875 71.4375 56.71875 71.4375 56.71875 74.101562 "/>
<path style=" stroke:none;fill-rule:nonzero;fill:rgb(20%,20%,70%);fill-opacity:1;" d="M 67.097656 80.035156 L 69.097656 80.035156 C 69.097656 82.703125 65.097656 82.703125 65.097656 80.035156 C 65.097656 77.371094 69.097656 77.371094 69.097656 80.035156 "/>
<path style=" stroke:none;fill-rule:nonzero;fill:rgb(20%,20%,70%);fill-opacity:1;" d="M 100 100 L 104 100 C 104 105.332031 96 105.332031 96 100 C 96 94.667969 104 94.667969 104 100 "/>
</g>
</svg>
